<svg width="479" height="113" viewBox="0 0 479 113" fill="none" xmlns="http://www.w3.org/2000/svg">
<path d="M0.03125 111V1.90909H29.6477V44.5227H68.8523V1.90909H98.4688V111H68.8523V68.3864H29.6477V111H0.03125ZM112.531 111V1.90909H191.153V25.7727H142.148V44.5227H187.105V68.3864H142.148V87.1364H190.94V111H112.531ZM205.842 111V1.90909H235.458V87.1364H279.563V111H205.842ZM291.535 111V1.90909H321.152V87.1364H365.257V111H291.535ZM478.662 56.4545C478.662 68.5994 476.301 78.8445 471.578 87.1896C466.855 95.4993 460.48 101.803 452.455 106.099C444.429 110.361 435.48 112.491 425.608 112.491C415.665 112.491 406.681 110.343 398.655 106.046C390.665 101.714 384.309 95.3928 379.586 87.0831C374.898 78.7379 372.554 68.5284 372.554 56.4545C372.554 44.3097 374.898 34.0824 379.586 25.7727C384.309 17.4276 390.665 11.1243 398.655 6.86292C406.681 2.56605 415.665 0.41761 425.608 0.41761C435.48 0.41761 444.429 2.56605 452.455 6.86292C460.48 11.1243 466.855 17.4276 471.578 25.7727C476.301 34.0824 478.662 44.3097 478.662 56.4545ZM448.194 56.4545C448.194 49.9205 447.324 44.4162 445.583 39.9418C443.879 35.4318 441.34 32.0227 437.966 29.7145C434.628 27.3707 430.509 26.1989 425.608 26.1989C420.708 26.1989 416.571 27.3707 413.197 29.7145C409.859 32.0227 407.32 35.4318 405.58 39.9418C403.875 44.4162 403.023 49.9205 403.023 56.4545C403.023 62.9886 403.875 68.5107 405.58 73.0206C407.32 77.495 409.859 80.9041 413.197 83.2479C416.571 85.5561 420.708 86.7102 425.608 86.7102C430.509 86.7102 434.628 85.5561 437.966 83.2479C441.34 80.9041 443.879 77.495 445.583 73.0206C447.324 68.5107 448.194 62.9886 448.194 56.4545Z" fill="white"/>
</svg>
