<svg width="609" height="51" viewBox="0 0 609 51" fill="none" xmlns="http://www.w3.org/2000/svg">
<path d="M26.4148 21.6051H17.3949C17.3475 21.0488 17.1522 20.5694 16.8089 20.1669C16.4657 19.7644 16.0218 19.4567 15.4773 19.2436C14.9446 19.0187 14.3527 18.9062 13.7017 18.9062C12.8613 18.9062 12.1392 19.0601 11.5355 19.3679C10.9318 19.6757 10.6359 20.1136 10.6477 20.6818C10.6359 21.0843 10.8075 21.4571 11.1626 21.8004C11.5296 22.1437 12.2339 22.41 13.2756 22.5994L18.8153 23.5938C21.6089 24.1027 23.6863 24.9609 25.0476 26.1683C26.4207 27.3639 27.1132 28.9678 27.125 30.9801C27.1132 32.9214 26.5331 34.6082 25.3849 36.0405C24.2486 37.4609 22.692 38.5618 20.7152 39.343C18.7502 40.1125 16.5071 40.4972 13.9858 40.4972C9.81913 40.4972 6.558 39.6449 4.20241 37.9403C1.85866 36.2358 0.550663 33.9867 0.278409 31.1932H10.0085C10.1387 32.0573 10.5649 32.7261 11.2869 33.1996C12.0208 33.6612 12.9441 33.892 14.0568 33.892C14.9564 33.892 15.6963 33.7382 16.2763 33.4304C16.8681 33.1226 17.17 32.6847 17.1818 32.1165C17.17 31.5956 16.9096 31.1813 16.4006 30.8736C15.9034 30.5658 15.1222 30.3172 14.0568 30.1278L9.22727 29.2756C6.44555 28.7902 4.36222 27.867 2.97727 26.5057C1.59233 25.1444 0.905777 23.3925 0.917614 21.25C0.905777 19.3561 1.40294 17.7521 2.40909 16.4382C3.42708 15.1125 4.87713 14.1063 6.75923 13.4197C8.65317 12.7214 10.8963 12.3722 13.4886 12.3722C17.4304 12.3722 20.5376 13.1889 22.8104 14.8224C25.0949 16.456 26.2964 18.7169 26.4148 21.6051ZM30.8803 40V12.7273H40.6815V40H30.8803ZM35.7809 9.88636C34.4551 9.88636 33.3188 9.44839 32.3718 8.57244C31.4248 7.6965 30.9513 6.64299 30.9513 5.41193C30.9513 4.18087 31.4248 3.12737 32.3718 2.25142C33.3188 1.37547 34.4551 0.9375 35.7809 0.9375C37.1185 0.9375 38.2549 1.37547 39.19 2.25142C40.137 3.12737 40.6104 4.18087 40.6104 5.41193C40.6104 6.64299 40.137 7.6965 39.19 8.57244C38.2549 9.44839 37.1185 9.88636 35.7809 9.88636ZM53.2747 40.4261C51.5346 40.4261 49.9958 40.142 48.6582 39.5739C47.3324 38.9938 46.2908 38.1179 45.5332 36.946C44.7756 35.7741 44.3968 34.2827 44.3968 32.4716C44.3968 30.9801 44.6513 29.7076 45.1603 28.6541C45.6693 27.5888 46.3796 26.7188 47.291 26.044C48.2025 25.3693 49.2619 24.8544 50.4693 24.4993C51.6885 24.1442 53.0024 23.9134 54.411 23.8068C55.938 23.6884 57.1632 23.5464 58.0865 23.3807C59.0216 23.2031 59.6963 22.9605 60.1106 22.6527C60.5249 22.3331 60.7321 21.9129 60.7321 21.392V21.321C60.7321 20.6108 60.4598 20.0663 59.9153 19.6875C59.3708 19.3087 58.6724 19.1193 57.8201 19.1193C56.885 19.1193 56.1215 19.3265 55.5297 19.7408C54.9496 20.1432 54.6004 20.7647 54.4821 21.6051H45.4622C45.5806 19.9479 46.1073 18.4209 47.0424 17.0241C47.9894 15.6155 49.3684 14.491 51.1795 13.6506C52.9906 12.7983 55.2515 12.3722 57.9622 12.3722C59.9153 12.3722 61.6672 12.603 63.2179 13.0646C64.7685 13.5144 66.0884 14.1477 67.1774 14.9645C68.2664 15.7694 69.095 16.7164 69.6632 17.8054C70.2432 18.8826 70.5332 20.0545 70.5332 21.321V40H61.3713V36.1648H61.1582C60.6137 37.1828 59.9508 38.0054 59.1696 38.6328C58.4002 39.2602 57.5183 39.7159 56.524 40C55.5415 40.2841 54.4584 40.4261 53.2747 40.4261ZM56.4707 34.2472C57.2164 34.2472 57.9148 34.0933 58.5659 33.7855C59.2288 33.4777 59.7673 33.0339 60.1816 32.4538C60.5959 31.8738 60.8031 31.1695 60.8031 30.3409V28.0682C60.5427 28.1747 60.2645 28.2753 59.9686 28.37C59.6845 28.4647 59.3767 28.5535 59.0453 28.6364C58.7257 28.7192 58.3824 28.7962 58.0154 28.8672C57.6603 28.9382 57.2875 29.0033 56.8968 29.0625C56.1393 29.1809 55.5178 29.3762 55.0325 29.6484C54.559 29.9089 54.2039 30.2344 53.9672 30.625C53.7422 31.0038 53.6298 31.4299 53.6298 31.9034C53.6298 32.661 53.8961 33.241 54.4288 33.6435C54.9615 34.0459 55.6421 34.2472 56.4707 34.2472ZM75.2163 50.2273V12.7273H84.9464V17.4858H85.1594C85.5146 16.5625 86.0354 15.7161 86.7219 14.9467C87.4085 14.1655 88.2608 13.544 89.2788 13.0824C90.2968 12.6089 91.4805 12.3722 92.8299 12.3722C94.6291 12.3722 96.3396 12.8516 97.9613 13.8104C99.5948 14.7692 100.921 16.2784 101.939 18.3381C102.968 20.3977 103.483 23.0729 103.483 26.3636C103.483 29.5123 102.992 32.1224 102.01 34.1939C101.039 36.2654 99.7369 37.8101 98.1033 38.8281C96.4817 39.8461 94.7002 40.3551 92.7589 40.3551C91.4805 40.3551 90.3382 40.148 89.332 39.7337C88.3377 39.3075 87.4854 38.7334 86.7752 38.0114C86.0768 37.2775 85.5382 36.4489 85.1594 35.5256H85.0174V50.2273H75.2163ZM84.8043 26.3636C84.8043 27.6894 84.976 28.8376 85.3192 29.8082C85.6744 30.767 86.1715 31.5128 86.8107 32.0455C87.4618 32.5663 88.2371 32.8267 89.1367 32.8267C90.0363 32.8267 90.7998 32.5722 91.4272 32.0632C92.0664 31.5424 92.5517 30.8026 92.8832 29.8438C93.2264 28.8731 93.3981 27.7131 93.3981 26.3636C93.3981 25.0142 93.2264 23.8601 92.8832 22.9013C92.5517 21.9306 92.0664 21.1908 91.4272 20.6818C90.7998 20.161 90.0363 19.9006 89.1367 19.9006C88.2371 19.9006 87.4618 20.161 86.8107 20.6818C86.1715 21.1908 85.6744 21.9306 85.3192 22.9013C84.976 23.8601 84.8043 25.0142 84.8043 26.3636ZM115.189 40.4261C113.449 40.4261 111.91 40.142 110.572 39.5739C109.247 38.9938 108.205 38.1179 107.447 36.946C106.69 35.7741 106.311 34.2827 106.311 32.4716C106.311 30.9801 106.565 29.7076 107.074 28.6541C107.583 27.5888 108.294 26.7188 109.205 26.044C110.117 25.3693 111.176 24.8544 112.383 24.4993C113.603 24.1442 114.916 23.9134 116.325 23.8068C117.852 23.6884 119.077 23.5464 120.001 23.3807C120.936 23.2031 121.61 22.9605 122.025 22.6527C122.439 22.3331 122.646 21.9129 122.646 21.392V21.321C122.646 20.6108 122.374 20.0663 121.829 19.6875C121.285 19.3087 120.586 19.1193 119.734 19.1193C118.799 19.1193 118.036 19.3265 117.444 19.7408C116.864 20.1432 116.515 20.7647 116.396 21.6051H107.376C107.495 19.9479 108.021 18.4209 108.956 17.0241C109.903 15.6155 111.282 14.491 113.094 13.6506C114.905 12.7983 117.166 12.3722 119.876 12.3722C121.829 12.3722 123.581 12.603 125.132 13.0646C126.683 13.5144 128.002 14.1477 129.091 14.9645C130.18 15.7694 131.009 16.7164 131.577 17.8054C132.157 18.8826 132.447 20.0545 132.447 21.321V40H123.285V36.1648H123.072C122.528 37.1828 121.865 38.0054 121.084 38.6328C120.314 39.2602 119.432 39.7159 118.438 40C117.456 40.2841 116.372 40.4261 115.189 40.4261ZM118.385 34.2472C119.131 34.2472 119.829 34.0933 120.48 33.7855C121.143 33.4777 121.681 33.0339 122.096 32.4538C122.51 31.8738 122.717 31.1695 122.717 30.3409V28.0682C122.457 28.1747 122.179 28.2753 121.883 28.37C121.599 28.4647 121.291 28.5535 120.959 28.6364C120.64 28.7192 120.296 28.7962 119.93 28.8672C119.574 28.9382 119.202 29.0033 118.811 29.0625C118.053 29.1809 117.432 29.3762 116.947 29.6484C116.473 29.9089 116.118 30.2344 115.881 30.625C115.656 31.0038 115.544 31.4299 115.544 31.9034C115.544 32.661 115.81 33.241 116.343 33.6435C116.876 34.0459 117.556 34.2472 118.385 34.2472ZM172.02 21.6051H163C162.953 21.0488 162.758 20.5694 162.414 20.1669C162.071 19.7644 161.627 19.4567 161.083 19.2436C160.55 19.0187 159.958 18.9062 159.307 18.9062C158.467 18.9062 157.745 19.0601 157.141 19.3679C156.537 19.6757 156.241 20.1136 156.253 20.6818C156.241 21.0843 156.413 21.4571 156.768 21.8004C157.135 22.1437 157.839 22.41 158.881 22.5994L164.421 23.5938C167.214 24.1027 169.292 24.9609 170.653 26.1683C172.026 27.3639 172.719 28.9678 172.73 30.9801C172.719 32.9214 172.139 34.6082 170.99 36.0405C169.854 37.4609 168.297 38.5618 166.321 39.343C164.356 40.1125 162.113 40.4972 159.591 40.4972C155.425 40.4972 152.163 39.6449 149.808 37.9403C147.464 36.2358 146.156 33.9867 145.884 31.1932H155.614C155.744 32.0573 156.17 32.7261 156.892 33.1996C157.626 33.6612 158.55 33.892 159.662 33.892C160.562 33.892 161.302 33.7382 161.882 33.4304C162.474 33.1226 162.775 32.6847 162.787 32.1165C162.775 31.5956 162.515 31.1813 162.006 30.8736C161.509 30.5658 160.728 30.3172 159.662 30.1278L154.833 29.2756C152.051 28.7902 149.968 27.867 148.583 26.5057C147.198 25.1444 146.511 23.3925 146.523 21.25C146.511 19.3561 147.008 17.7521 148.015 16.4382C149.033 15.1125 150.483 14.1063 152.365 13.4197C154.259 12.7214 156.502 12.3722 159.094 12.3722C163.036 12.3722 166.143 13.1889 168.416 14.8224C170.7 16.456 171.902 18.7169 172.02 21.6051ZM176.486 40V12.7273H186.287V40H176.486ZM181.386 9.88636C180.061 9.88636 178.924 9.44839 177.977 8.57244C177.03 7.6965 176.557 6.64299 176.557 5.41193C176.557 4.18087 177.03 3.12737 177.977 2.25142C178.924 1.37547 180.061 0.9375 181.386 0.9375C182.724 0.9375 183.86 1.37547 184.795 2.25142C185.742 3.12737 186.216 4.18087 186.216 5.41193C186.216 6.64299 185.742 7.6965 184.795 8.57244C183.86 9.44839 182.724 9.88636 181.386 9.88636ZM201.082 24.6591V40H191.281V3.63636H200.727V17.9119H201.011C201.626 16.1719 202.65 14.8165 204.083 13.8459C205.515 12.8634 207.237 12.3722 209.249 12.3722C211.179 12.3722 212.854 12.8101 214.274 13.6861C215.707 14.562 216.813 15.7694 217.595 17.3082C218.388 18.8471 218.778 20.6108 218.767 22.5994V40H208.965V24.6591C208.977 23.3097 208.64 22.2502 207.953 21.4808C207.279 20.7114 206.314 20.3267 205.059 20.3267C204.266 20.3267 203.568 20.5043 202.964 20.8594C202.372 21.2027 201.91 21.6998 201.579 22.3509C201.259 22.9901 201.094 23.7595 201.082 24.6591ZM233.566 50.2273V12.7273H243.296V17.4858H243.509C243.864 16.5625 244.385 15.7161 245.072 14.9467C245.758 14.1655 246.61 13.544 247.628 13.0824C248.646 12.6089 249.83 12.3722 251.18 12.3722C252.979 12.3722 254.689 12.8516 256.311 13.8104C257.944 14.7692 259.27 16.2784 260.288 18.3381C261.318 20.3977 261.833 23.0729 261.833 26.3636C261.833 29.5123 261.342 32.1224 260.359 34.1939C259.389 36.2654 258.086 37.8101 256.453 38.8281C254.831 39.8461 253.05 40.3551 251.108 40.3551C249.83 40.3551 248.688 40.148 247.682 39.7337C246.687 39.3075 245.835 38.7334 245.125 38.0114C244.426 37.2775 243.888 36.4489 243.509 35.5256H243.367V50.2273H233.566ZM243.154 26.3636C243.154 27.6894 243.326 28.8376 243.669 29.8082C244.024 30.767 244.521 31.5128 245.16 32.0455C245.811 32.5663 246.587 32.8267 247.486 32.8267C248.386 32.8267 249.149 32.5722 249.777 32.0632C250.416 31.5424 250.901 30.8026 251.233 29.8438C251.576 28.8731 251.748 27.7131 251.748 26.3636C251.748 25.0142 251.576 23.8601 251.233 22.9013C250.901 21.9306 250.416 21.1908 249.777 20.6818C249.149 20.161 248.386 19.9006 247.486 19.9006C246.587 19.9006 245.811 20.161 245.16 20.6818C244.521 21.1908 244.024 21.9306 243.669 22.9013C243.326 23.8601 243.154 25.0142 243.154 26.3636ZM279.007 40.4972C276.095 40.4972 273.586 39.9408 271.479 38.8281C269.384 37.7036 267.768 36.0937 266.631 33.9986C265.507 31.8916 264.945 29.3703 264.945 26.4347C264.945 23.6174 265.513 21.1553 266.649 19.0483C267.786 16.9413 269.389 15.3018 271.461 14.13C273.532 12.9581 275.977 12.3722 278.794 12.3722C280.854 12.3722 282.718 12.6918 284.387 13.331C286.056 13.9702 287.482 14.8994 288.666 16.1186C289.85 17.326 290.761 18.7938 291.401 20.522C292.04 22.2502 292.359 24.1974 292.359 26.3636V28.6364H267.999V23.2386H283.339C283.328 22.4574 283.126 21.7708 282.736 21.179C282.357 20.5753 281.842 20.1077 281.191 19.7763C280.552 19.433 279.824 19.2614 279.007 19.2614C278.214 19.2614 277.486 19.433 276.823 19.7763C276.16 20.1077 275.628 20.5694 275.225 21.1612C274.835 21.7531 274.627 22.4455 274.604 23.2386V29.0625C274.604 29.9384 274.787 30.7197 275.154 31.4062C275.521 32.0928 276.048 32.6314 276.734 33.022C277.421 33.4126 278.25 33.608 279.22 33.608C279.895 33.608 280.51 33.5133 281.067 33.3239C281.635 33.1345 282.12 32.8622 282.523 32.5071C282.925 32.1402 283.221 31.7022 283.411 31.1932H292.359C292.052 33.0871 291.324 34.7325 290.175 36.1293C289.027 37.5142 287.506 38.5914 285.612 39.3608C283.73 40.1184 281.528 40.4972 279.007 40.4972ZM306.16 24.6591V40H296.359V12.7273H305.663V17.9119H305.947C306.539 16.1837 307.58 14.8284 309.072 13.8459C310.575 12.8634 312.327 12.3722 314.328 12.3722C316.257 12.3722 317.932 12.8161 319.352 13.7038C320.785 14.5798 321.892 15.7872 322.673 17.326C323.466 18.8648 323.856 20.6226 323.845 22.5994V40H314.044V24.6591C314.055 23.3097 313.712 22.2502 313.014 21.4808C312.327 20.7114 311.368 20.3267 310.137 20.3267C309.332 20.3267 308.628 20.5043 308.024 20.8594C307.432 21.2027 306.977 21.6998 306.657 22.3509C306.338 22.9901 306.172 23.7595 306.16 24.6591ZM341.751 40.4972C338.839 40.4972 336.33 39.9408 334.223 38.8281C332.128 37.7036 330.512 36.0937 329.376 33.9986C328.251 31.8916 327.689 29.3703 327.689 26.4347C327.689 23.6174 328.257 21.1553 329.393 19.0483C330.53 16.9413 332.134 15.3018 334.205 14.13C336.277 12.9581 338.721 12.3722 341.538 12.3722C343.598 12.3722 345.462 12.6918 347.131 13.331C348.8 13.9702 350.227 14.8994 351.41 16.1186C352.594 17.326 353.506 18.7938 354.145 20.522C354.784 22.2502 355.104 24.1974 355.104 26.3636V28.6364H330.743V23.2386H346.084C346.072 22.4574 345.871 21.7708 345.48 21.179C345.101 20.5753 344.586 20.1077 343.935 19.7763C343.296 19.433 342.568 19.2614 341.751 19.2614C340.958 19.2614 340.23 19.433 339.567 19.7763C338.904 20.1077 338.372 20.5694 337.969 21.1612C337.579 21.7531 337.372 22.4455 337.348 23.2386V29.0625C337.348 29.9384 337.531 30.7197 337.898 31.4062C338.265 32.0928 338.792 32.6314 339.479 33.022C340.165 33.4126 340.994 33.608 341.964 33.608C342.639 33.608 343.255 33.5133 343.811 33.3239C344.379 33.1345 344.864 32.8622 345.267 32.5071C345.669 32.1402 345.965 31.7022 346.155 31.1932H355.104C354.796 33.0871 354.068 34.7325 352.92 36.1293C351.771 37.5142 350.25 38.5914 348.356 39.3608C346.474 40.1184 344.273 40.4972 341.751 40.4972ZM359.103 40V12.7273H368.407V17.9119H368.691C369.259 16.2074 370.23 14.858 371.603 13.8636C372.976 12.8693 374.61 12.3722 376.504 12.3722C378.421 12.3722 380.072 12.8812 381.457 13.8991C382.842 14.9053 383.677 16.2429 383.961 17.9119H384.245C384.707 16.2429 385.689 14.9053 387.192 13.8991C388.696 12.8812 390.46 12.3722 392.484 12.3722C395.1 12.3722 397.219 13.2126 398.84 14.8935C400.474 16.5743 401.29 18.8116 401.29 21.6051V40H391.489V24.0909C391.489 22.8954 391.188 21.9602 390.584 21.2855C389.98 20.599 389.169 20.2557 388.151 20.2557C387.145 20.2557 386.346 20.599 385.754 21.2855C385.174 21.9602 384.884 22.8954 384.884 24.0909V40H375.509V24.0909C375.509 22.8954 375.207 21.9602 374.604 21.2855C374 20.599 373.189 20.2557 372.171 20.2557C371.496 20.2557 370.916 20.4096 370.431 20.7173C369.946 21.0251 369.567 21.469 369.295 22.049C369.034 22.6172 368.904 23.2978 368.904 24.0909V40H359.103ZM423.809 28.0682V12.7273H433.61V40H424.306V34.8153H424.022C423.43 36.5554 422.395 37.9167 420.915 38.8991C419.435 39.8698 417.677 40.3551 415.642 40.3551C413.736 40.3551 412.067 39.9171 410.634 39.0412C409.214 38.1652 408.107 36.9579 407.314 35.419C406.533 33.8802 406.136 32.1165 406.124 30.1278V12.7273H415.926V28.0682C415.937 29.4176 416.281 30.477 416.955 31.2464C417.642 32.0159 418.601 32.4006 419.832 32.4006C420.649 32.4006 421.353 32.2289 421.945 31.8857C422.548 31.5305 423.01 31.0334 423.33 30.3942C423.661 29.7431 423.821 28.9678 423.809 28.0682ZM448.556 40V12.7273H458.073V17.9119H458.357C458.854 15.9943 459.642 14.5916 460.719 13.7038C461.808 12.8161 463.08 12.3722 464.536 12.3722C464.962 12.3722 465.383 12.4077 465.797 12.4787C466.223 12.5379 466.631 12.6267 467.022 12.745V21.108C466.537 20.9422 465.939 20.8179 465.229 20.7351C464.518 20.6522 463.909 20.6108 463.4 20.6108C462.441 20.6108 461.577 20.8298 460.808 21.2678C460.05 21.6939 459.452 22.2976 459.014 23.0788C458.576 23.8482 458.357 24.7538 458.357 25.7955V40H448.556ZM481.812 40.4972C478.853 40.4972 476.32 39.9112 474.213 38.7393C472.106 37.5556 470.49 35.9103 469.366 33.8033C468.241 31.6844 467.679 29.2282 467.679 26.4347C467.679 23.6411 468.241 21.1908 469.366 19.0838C470.49 16.965 472.106 15.3196 474.213 14.1477C476.32 12.964 478.853 12.3722 481.812 12.3722C484.772 12.3722 487.305 12.964 489.412 14.1477C491.519 15.3196 493.135 16.965 494.259 19.0838C495.384 21.1908 495.946 23.6411 495.946 26.4347C495.946 29.2282 495.384 31.6844 494.259 33.8033C493.135 35.9103 491.519 37.5556 489.412 38.7393C487.305 39.9112 484.772 40.4972 481.812 40.4972ZM481.884 33.2528C482.712 33.2528 483.428 32.9747 484.032 32.4183C484.636 31.862 485.103 31.0689 485.435 30.0391C485.766 29.0092 485.932 27.7841 485.932 26.3636C485.932 24.9313 485.766 23.7062 485.435 22.6882C485.103 21.6584 484.636 20.8653 484.032 20.3089C483.428 19.7526 482.712 19.4744 481.884 19.4744C481.008 19.4744 480.256 19.7526 479.629 20.3089C479.001 20.8653 478.522 21.6584 478.19 22.6882C477.859 23.7062 477.693 24.9313 477.693 26.3636C477.693 27.7841 477.859 29.0092 478.19 30.0391C478.522 31.0689 479.001 31.862 479.629 32.4183C480.256 32.9747 481.008 33.2528 481.884 33.2528ZM499.781 40V3.63636H509.582V17.4858H509.724C510.08 16.5625 510.6 15.7161 511.287 14.9467C511.973 14.1655 512.826 13.544 513.844 13.0824C514.862 12.6089 516.045 12.3722 517.395 12.3722C519.194 12.3722 520.905 12.8516 522.526 13.8104C524.16 14.7692 525.486 16.2784 526.504 18.3381C527.533 20.3977 528.048 23.0729 528.048 26.3636C528.048 29.5123 527.557 32.1224 526.575 34.1939C525.604 36.2654 524.302 37.8101 522.668 38.8281C521.047 39.8461 519.265 40.3551 517.324 40.3551C516.045 40.3551 514.903 40.148 513.897 39.7337C512.903 39.3075 512.05 38.7334 511.34 38.0114C510.642 37.2775 510.103 36.4489 509.724 35.5256H509.511V40H499.781ZM509.369 26.3636C509.369 27.6894 509.541 28.8376 509.884 29.8082C510.239 30.767 510.737 31.5128 511.376 32.0455C512.027 32.5663 512.802 32.8267 513.702 32.8267C514.601 32.8267 515.365 32.5722 515.992 32.0632C516.631 31.5424 517.117 30.8026 517.448 29.8438C517.791 28.8731 517.963 27.7131 517.963 26.3636C517.963 25.0142 517.791 23.8601 517.448 22.9013C517.117 21.9306 516.631 21.1908 515.992 20.6818C515.365 20.161 514.601 19.9006 513.702 19.9006C512.802 19.9006 512.027 20.161 511.376 20.6818C510.737 21.1908 510.239 21.9306 509.884 22.9013C509.541 23.8601 509.369 25.0142 509.369 26.3636ZM545.289 40.4972C542.33 40.4972 539.797 39.9112 537.69 38.7393C535.583 37.5556 533.967 35.9103 532.842 33.8033C531.718 31.6844 531.156 29.2282 531.156 26.4347C531.156 23.6411 531.718 21.1908 532.842 19.0838C533.967 16.965 535.583 15.3196 537.69 14.1477C539.797 12.964 542.33 12.3722 545.289 12.3722C548.248 12.3722 550.781 12.964 552.888 14.1477C554.996 15.3196 556.611 16.965 557.736 19.0838C558.86 21.1908 559.423 23.6411 559.423 26.4347C559.423 29.2282 558.86 31.6844 557.736 33.8033C556.611 35.9103 554.996 37.5556 552.888 38.7393C550.781 39.9112 548.248 40.4972 545.289 40.4972ZM545.36 33.2528C546.189 33.2528 546.905 32.9747 547.509 32.4183C548.112 31.862 548.58 31.0689 548.911 30.0391C549.243 29.0092 549.408 27.7841 549.408 26.3636C549.408 24.9313 549.243 23.7062 548.911 22.6882C548.58 21.6584 548.112 20.8653 547.509 20.3089C546.905 19.7526 546.189 19.4744 545.36 19.4744C544.484 19.4744 543.732 19.7526 543.105 20.3089C542.478 20.8653 541.998 21.6584 541.667 22.6882C541.335 23.7062 541.17 24.9313 541.17 26.3636C541.17 27.7841 541.335 29.0092 541.667 30.0391C541.998 31.0689 542.478 31.862 543.105 32.4183C543.732 32.9747 544.484 33.2528 545.36 33.2528ZM579.664 12.7273V19.8295H561.695V12.7273H579.664ZM565.175 6.19318H574.977V31.2287C574.977 31.6075 575.042 31.9271 575.172 32.1875C575.302 32.4361 575.503 32.6255 575.776 32.7557C576.048 32.8741 576.397 32.9332 576.823 32.9332C577.119 32.9332 577.462 32.8977 577.853 32.8267C578.255 32.7557 578.551 32.6965 578.741 32.6491L580.161 39.5384C579.723 39.6686 579.096 39.8284 578.279 40.0178C577.474 40.2071 576.515 40.3314 575.403 40.3906C573.154 40.509 571.266 40.2782 569.739 39.6982C568.212 39.1063 567.063 38.1771 566.294 36.9105C565.525 35.6439 565.152 34.0578 565.175 32.152V6.19318ZM590.837 28.6364V27.7841C590.837 25.831 590.991 24.2744 591.298 23.1143C591.606 21.9543 592.062 21.0251 592.666 20.3267C593.269 19.6165 594.009 18.9773 594.885 18.4091C595.643 17.9119 596.317 17.4325 596.909 16.9709C597.513 16.5092 597.986 16.018 598.33 15.4972C598.685 14.9763 598.862 14.3845 598.862 13.7216C598.862 13.1297 598.72 12.6089 598.436 12.1591C598.152 11.7093 597.767 11.3601 597.282 11.1115C596.797 10.8629 596.258 10.7386 595.666 10.7386C595.027 10.7386 594.435 10.8866 593.891 11.1825C593.358 11.4785 592.926 11.8868 592.595 12.4077C592.275 12.9285 592.115 13.5322 592.115 14.2188H583.024C583.048 11.6146 583.64 9.50166 584.8 7.87997C585.96 6.24645 587.499 5.0509 589.416 4.29332C591.334 3.52391 593.441 3.1392 595.737 3.1392C598.271 3.1392 600.531 3.51207 602.52 4.25781C604.509 4.99171 606.077 6.1044 607.225 7.59588C608.374 9.07552 608.948 10.928 608.948 13.1534C608.948 14.5857 608.699 15.8464 608.202 16.9354C607.717 18.0125 607.036 18.9654 606.16 19.794C605.296 20.6108 604.284 21.3565 603.124 22.0312C602.271 22.5284 601.555 23.0433 600.975 23.576C600.395 24.0968 599.957 24.6946 599.661 25.3693C599.365 26.0322 599.218 26.8371 599.218 27.7841V28.6364H590.837ZM595.169 40.5682C593.796 40.5682 592.618 40.0888 591.636 39.13C590.665 38.1593 590.186 36.9815 590.198 35.5966C590.186 34.2472 590.665 33.093 591.636 32.1342C592.618 31.1754 593.796 30.696 595.169 30.696C596.471 30.696 597.619 31.1754 598.614 32.1342C599.62 33.093 600.129 34.2472 600.141 35.5966C600.129 36.5199 599.886 37.3603 599.413 38.1179C598.951 38.8636 598.347 39.4614 597.602 39.9112C596.856 40.3492 596.045 40.5682 595.169 40.5682Z" fill="white"/>
</svg>
